# xmcd
#
# Track frame offsets:
#	182
#	12995
#	26392
#	40772
#	57937
#	72975
#	93060
#	106075
#	125595
#	138760
#
# Disc length: 2030 seconds
#
# Revision: 2
# Processed by: cddbd v1.5.1PL2 Copyright (c) Steve Scherf et al.
# Submitted via: dBpowerAMP V4.0
#
DISCID=7607ec0a
DTITLE=Dennis Robbins - Born Ready
DYEAR=1994
DGENRE=Country
TTITLE0=Mona Lisa On Cruise Control
TTITLE1=Travelin' Music
TTITLE2=Born Ready
TTITLE3=Wild Rebel Love
TTITLE4=Where There's A Wheel There's A Way
TTITLE5=Ride Ride Ride
TTITLE6=Blowin' Smoke
TTITLE7=Before We Reach The Crossroads
TTITLE8=Looking For A Thing Called Love
TTITLE9=Walkin' On The Edge
EXTD=
EXTT0=
EXTT1=
EXTT2=
EXTT3=
EXTT4=
EXTT5=
EXTT6=
EXTT7=
EXTT8=
EXTT9=
PLAYORDER=
